<svg xmlns="http://www.w3.org/2000/svg" xmlns:xlink="http://www.w3.org/1999/xlink" width="24" height="24" version="1.1" viewBox="0 0 24 24"><title>icon/settings copy</title><desc>Created with Sketch.</desc><g id="icon/settings-copy" fill="none" fill-rule="evenodd" stroke="none" stroke-width="1"><g id="_ionicons_svg_ios-switch" fill="#353D47" fill-rule="nonzero" transform="translate(2.000000, 2.000000)"><circle id="Oval" cx="4.615" cy="15.385" r="2.019"/><path id="Shape" stroke="#111519" d="M15.3605769,10.7692308 L4.63942308,10.7692308 C2.07692308,10.7692308 0,12.8461538 0,15.4086538 C0,17.9711538 2.07692308,20 4.63942308,20 L15.3605769,20 C17.9230769,20 20,17.9711538 20,15.4086538 C20,12.8461538 17.9230769,10.7692308 15.3605769,10.7692308 Z M4.61538462,18.4615385 C2.91826923,18.4615385 1.53846154,17.0817308 1.53846154,15.3846154 C1.53846154,13.6875 2.91826923,12.3076923 4.61538462,12.3076923 C6.3125,12.3076923 7.69230769,13.6875 7.69230769,15.3846154 C7.69230769,17.0817308 6.3125,18.4615385 4.61538462,18.4615385 Z"/><circle id="Oval" cx="15.385" cy="4.615" r="2.019"/><path id="Shape" stroke="#111519" d="M4.63942308,9.23076923 L15.3605769,9.23076923 C17.9230769,9.23076923 20,7.20192308 20,4.63942308 C20,2.07692308 17.9230769,0 15.3605769,0 L4.63942308,0 C2.07692308,0 0,2.07692308 0,4.63942308 C0,7.20192308 2.07692308,9.23076923 4.63942308,9.23076923 Z M15.3846154,1.53846154 C17.0817308,1.53846154 18.4615385,2.91826923 18.4615385,4.61538462 C18.4615385,6.3125 17.0817308,7.69230769 15.3846154,7.69230769 C13.6875,7.69230769 12.3076923,6.3125 12.3076923,4.61538462 C12.3076923,2.91826923 13.6875,1.53846154 15.3846154,1.53846154 Z"/></g><circle id="Oval" cx="17.398" cy="6.602" r="3" stroke="#FAFAFA"/><circle id="Oval-Copy" cx="6.613" cy="17.381" r="3" stroke="#FAFAFA"/></g></svg>